<?xml version='1.0' encoding='utf-8'?>
<svg xmlns="http://www.w3.org/2000/svg" viewBox="0 0 200 120" id="Layer_1"><g id="Logo"><path d="M133.8,35.28c-1.1,0-4.19.07-8.11.17h-6.51a11,11,0,0,0-1.3,0,14.86,14.86,0,0,0,.12-1.88,20.23,20.23,0,0,1,11.38-18.2L118.48,0a38.87,38.87,0,0,0-19.18,33.51c0,17.73-.65,20.15,11.25,20.45,2.5.06,5.52,0,9.22,0,1,0,2.24,0,3.16-.07h11.55a20.24,20.24,0,0,1-.57,40.47A20.14,20.14,0,0,1,117.58,87L73.16,23.33,73.1,23.38,70,17.87l-.09.05a38.74,38.74,0,0,0-31-15.58A38.85,38.85,0,0,0,0,41.2C0,62.68-1,61.64,20.49,61.64c3.9,0,42.55-.59,46.1-1.66L54.68,43,19.78,43a14.83,14.83,0,0,0,.11-1.87A20.24,20.24,0,0,1,40.13,20.9a20.15,20.15,0,0,1,15.8,7.61l44.46,63.62,3.82,5.33a38.8,38.8,0,0,0,31.12,15.46,38.85,38.85,0,0,0-.26-77.7Z" fill="white" transform="translate(5,0)" /></g></svg>